# xmcd
# Track frame offsets:
# 150
# 13462
# 26699
# 43536
# 58648
# 73985
# 88872
# 105484
# 120821
# 136683
# 151045
# 167057
# 184194
# 199756
# 216293
# 235380
# 250642
# 267854
# 288141
# 303178
# 318665
#
# Disc length: 4466 seconds
# Revision: 1
# Processed by: cddbd v1.5.2PL0 Copyright (c) Steve Scherf et al.
# Submitted via: VisiTrax 2.11.1.266 - For more info visit www.synapsa.com
#
DISCID=22117015
DTITLE=Various Artist - Country Radio - 2010-07
DYEAR=2010
DGENRE=Country
TTITLE0=Carrie Underwood - Undo It
TTITLE1=Justin Moore - How I Got to Be This Way
TTITLE2=Keith Urban - I'm In
TTITLE3=Montgomery Gentry - While You're Still Young
TTITLE4=Blake Shelton - All About Tonight
TTITLE5=Trace Adkins - This Ain't No Love Song
TTITLE6=Band Perry, The - If I Die Young
TTITLE7=Williams Riley - Makes Me Go (La La)
TTITLE8=Darryl Worley - Keep the Change
TTITLE9=Bomshel - Just Fine
TTITLE10=Troy Olsen - Summer Thing
TTITLE11=Bridgette Tatum - That's Love Y'All
TTITLE12=Lathan Moore - Beautiful Girl
TTITLE13=Jewel - Satisfied
TTITLE14=Sammy Kershaw - Snow White Rows of Arlington, The
TTITLE15=Jannette McCurdy - Not That Far Away
TTITLE16=Boogy Creek - Boggy Creek
TTITLE17=Keller and the Keels - Don't Cuss the Fiddle
TTITLE18=Jim Van Fleet - Redneck Riviera
TTITLE19=Jeremy Parsons - Doggonest Feelin'
TTITLE20=Coldwater Canyon Band - Nobody Knows
EXTD=Updated by Larry @LosSenderosStudio.com
EXTT0=
EXTT1=
EXTT2=
EXTT3=
EXTT4=
EXTT5=
EXTT6=
EXTT7=
EXTT8=
EXTT9=
EXTT10=
EXTT11=
EXTT12=
EXTT13=
EXTT14=
EXTT15=
EXTT16=
EXTT17=
EXTT18=
EXTT19=
EXTT20=
PLAYORDER=
